<svg width="25" height="22" viewBox="0 0 25 22" fill="none" xmlns="http://www.w3.org/2000/svg">
<path d="M1.53384 13.3282C1.47103 13.6565 1.42718 13.989 1.42718 14.3291C1.42718 18.4677 6.3238 21.8348 12.2261 21.8348C18.1285 21.8348 22.93 18.4677 22.93 14.3291C22.93 13.989 22.8861 13.6565 22.8233 13.3282C23.7487 12.8669 24.3571 11.9558 24.3571 10.9174C24.3571 9.41218 23.077 8.18806 21.5028 8.18806C20.7834 8.18806 20.1076 8.44589 19.5893 8.89545C17.7957 7.69976 15.4159 6.93924 12.7847 6.84328L14.1502 1.77852L17.2296 2.80878C17.2748 4.2767 18.5299 5.45871 20.0756 5.45871C21.6498 5.45871 22.93 4.23458 22.93 2.72935C22.93 1.22412 21.6498 0 20.0756 0C18.9781 0 18.0345 0.601666 17.5571 1.47218L13.1564 0.000710769L11.307 6.85608C8.81839 7.00534 6.47953 7.75431 4.76785 8.89545C4.24957 8.44589 3.5737 8.18806 2.85435 8.18806C1.28018 8.18806 0 9.41218 0 10.9174C0 11.9558 0.608408 12.8669 1.53384 13.3282ZM16.5077 10.9174C17.6881 10.9174 18.6484 11.8357 18.6484 12.9644C18.6484 14.0931 17.6881 15.0114 16.5077 15.0114C15.3273 15.0114 14.3669 14.0931 14.3669 12.9644C14.3669 11.8357 15.3273 10.9174 16.5077 10.9174ZM16.2025 16.9453L16.8128 18.1779C15.4735 18.7849 13.8875 19.1055 12.2261 19.1055C10.5648 19.1055 8.88362 18.7849 7.54434 18.1779L8.1546 16.9451C10.4544 17.986 13.9027 17.986 16.2025 16.9453ZM7.84947 10.9174C9.02986 10.9174 9.99023 11.8357 9.99023 12.9644C9.99023 14.0931 9.02986 15.0114 7.84947 15.0114C6.66908 15.0114 5.70871 14.0931 5.70871 12.9644C5.70871 11.8357 6.66908 10.9174 7.84947 10.9174Z" fill="#F2F2F2"/>
</svg>
