<svg width="22" height="21" viewBox="0 0 22 21" fill="none" xmlns="http://www.w3.org/2000/svg">
<path d="M19.7595 5.15132C18.8125 3.56661 17.528 2.31198 15.9056 1.38717C14.2829 0.462312 12.5115 0 10.59 0C8.66869 0 6.89666 0.462453 5.27434 1.38717C3.65178 2.31193 2.36729 3.56661 1.4203 5.15132C0.473448 6.73599 0 8.46646 0 10.3427C0 12.5965 0.67325 14.6231 2.02009 16.4232C3.36678 18.2234 5.10651 19.469 7.23912 20.1603C7.48737 20.2053 7.67113 20.1736 7.79062 20.0661C7.91015 19.9585 7.96985 19.8237 7.96985 19.6623C7.96985 19.6353 7.96748 19.393 7.96289 18.9351C7.95816 18.4771 7.95594 18.0776 7.95594 17.7367L7.63878 17.7902C7.43656 17.8264 7.18146 17.8418 6.87347 17.8374C6.56563 17.8332 6.24606 17.8017 5.91518 17.7431C5.58416 17.6851 5.27627 17.5504 4.99127 17.3394C4.70642 17.1284 4.5042 16.8522 4.38467 16.5113L4.24679 16.2014C4.15488 15.9951 4.01018 15.7659 3.81251 15.5146C3.61483 15.2632 3.41493 15.0927 3.21271 15.0029L3.11617 14.9354C3.05184 14.8906 2.99215 14.8365 2.93694 14.7737C2.88179 14.7109 2.8405 14.6481 2.81292 14.5851C2.78529 14.5222 2.80819 14.4705 2.88184 14.43C2.95549 14.3895 3.08859 14.3698 3.28173 14.3698L3.5574 14.4101C3.74127 14.446 3.9687 14.5535 4.23998 14.7332C4.51111 14.9127 4.734 15.1461 4.90869 15.4333C5.12022 15.8015 5.37508 16.0821 5.67399 16.2751C5.97265 16.4682 6.27378 16.5646 6.57708 16.5646C6.88038 16.5646 7.14234 16.5421 7.36305 16.4975C7.58352 16.4526 7.79038 16.3851 7.98351 16.2953C8.06625 15.6935 8.2915 15.2312 8.65908 14.9081C8.13516 14.8543 7.66413 14.7733 7.24574 14.6656C6.82759 14.5578 6.39548 14.3828 5.94971 14.1401C5.50369 13.8978 5.1337 13.5969 4.83962 13.238C4.5455 12.8788 4.30411 12.4073 4.11581 11.8239C3.9274 11.2402 3.83318 10.5669 3.83318 9.80378C3.83318 8.71722 4.19636 7.7926 4.92259 7.02939C4.5824 6.2125 4.61451 5.29675 5.01904 4.28222C5.28564 4.20132 5.68099 4.26203 6.20491 4.46396C6.72892 4.66599 7.11259 4.83906 7.35629 4.98255C7.59999 5.12599 7.79526 5.24755 7.94237 5.34613C8.79745 5.11278 9.67987 4.99609 10.5899 4.99609C11.4999 4.99609 12.3825 5.11278 13.2376 5.34613L13.7616 5.02307C14.1199 4.8075 14.543 4.60995 15.0299 4.43038C15.5171 4.2509 15.8897 4.20146 16.1472 4.28236C16.5607 5.29694 16.5976 6.21264 16.2573 7.02953C16.9835 7.79274 17.3468 8.7176 17.3468 9.80392C17.3468 10.567 17.2522 11.2425 17.0641 11.8306C16.8758 12.4189 16.6323 12.8899 16.3336 13.2447C16.0346 13.5995 15.6623 13.898 15.2165 14.1403C14.7706 14.3827 14.3384 14.5577 13.9202 14.6656C13.5019 14.7734 13.0309 14.8544 12.5069 14.9083C12.9848 15.3122 13.2238 15.9497 13.2238 16.8205V19.6619C13.2238 19.8233 13.2812 19.9581 13.3963 20.0658C13.5112 20.1733 13.6926 20.2049 13.9409 20.1599C16.0738 19.4687 17.8135 18.223 19.1601 16.4228C20.5066 14.6227 21.1801 12.5961 21.1801 10.3423C21.1796 8.46632 20.706 6.73599 19.7595 5.15132Z" fill="#F2F2F2"/>
</svg>
