<svg width="24" height="20" viewBox="0 0 24 20" fill="none" xmlns="http://www.w3.org/2000/svg">
<path d="M22.3508 0.0746437L0.507345 8.16376C-0.200167 8.42579 -0.157305 9.39062 0.570994 9.59496L6.12165 11.1526L8.19315 17.399C8.40954 18.0515 9.27961 18.2493 9.78328 17.7606L12.6531 14.9759L18.284 18.9037C18.9731 19.3844 19.9544 19.0273 20.1294 18.2322L23.8588 1.28823C24.0414 0.45826 23.1822 -0.23323 22.3508 0.0746437ZM19.6122 3.83493L9.46604 12.3613C9.36491 12.4463 9.30054 12.5639 9.28549 12.6914L8.89486 15.9914C8.8821 16.099 8.72362 16.1132 8.68979 16.0098L7.0826 11.0884C7.00899 10.8631 7.10497 10.619 7.31591 10.4947L19.2975 3.43292C19.573 3.2704 19.8551 3.63086 19.6122 3.83493Z" fill="#F2F2F2"/>
</svg>
