<svg width="24" height="18" viewBox="0 0 24 18" fill="none" xmlns="http://www.w3.org/2000/svg">
<path d="M23.2981 2.1231C22.4412 2.48302 21.5194 2.72646 20.5526 2.83518C21.5397 2.27504 22.2972 1.38872 22.6547 0.33089C21.7311 0.849846 20.7077 1.22632 19.6194 1.42924C18.7474 0.549682 17.5051 0 16.1295 0C13.4902 0 11.3496 2.02754 11.3496 4.52745C11.3496 4.88231 11.3921 5.22772 11.474 5.55928C7.50154 5.37054 3.97927 3.56821 1.62158 0.828237C1.21021 1.49677 0.974231 2.27504 0.974231 3.10462C0.974231 4.675 1.81871 6.06136 3.10057 6.87305C2.31741 6.84975 1.57987 6.64615 0.935733 6.30615C0.935376 6.32539 0.935376 6.34464 0.935376 6.36355C0.935376 8.55721 2.58369 10.3869 4.76992 10.8025C4.36925 10.9065 3.94612 10.9616 3.51087 10.9616C3.20217 10.9616 2.90309 10.9335 2.6115 10.8809C3.21963 12.6792 4.98451 13.9882 7.07663 14.025C5.44044 15.2395 3.37969 15.9631 1.13963 15.9631C0.754646 15.9631 0.373224 15.9418 0 15.8996C2.11422 17.1847 4.62733 17.9339 7.32652 17.9339C16.1185 17.9339 20.9265 11.0352 20.9265 5.05181C20.9265 4.85564 20.9219 4.66014 20.9126 4.46633C21.8473 3.82819 22.6576 3.03102 23.2981 2.1231Z" fill="#F2F2F2"/>
</svg>
