<svg width="25" height="16" viewBox="0 0 25 16" fill="none" xmlns="http://www.w3.org/2000/svg">
<path d="M23.322 1.5173C22.6613 0.412247 21.9443 0.208986 20.4844 0.13169C19.026 0.0386481 15.3587 0 12.1816 0C8.99844 0 5.32965 0.0386481 3.87279 0.130259C2.41592 0.208986 1.69739 0.410815 1.03061 1.5173C0.350134 2.62092 0 4.52183 0 7.86847C0 7.87134 0 7.87277 0 7.87277C0 7.87563 0 7.87706 0 7.87706V7.87992C0 11.2123 0.350134 13.1275 1.03061 14.2196C1.69739 15.3247 2.4144 15.5251 3.87126 15.6181C5.32965 15.6983 8.99844 15.7455 12.1816 15.7455C15.3587 15.7455 19.026 15.6983 20.4859 15.6196C21.9458 15.5265 22.6628 15.3261 23.3235 14.2211C24.0101 13.1289 24.3571 11.2137 24.3571 7.88136C24.3571 7.88136 24.3571 7.87706 24.3571 7.8742C24.3571 7.8742 24.3571 7.87134 24.3571 7.8699C24.3571 4.52183 24.0101 2.62092 23.322 1.5173ZM9.13393 12.167V3.57853L16.7455 7.87277L9.13393 12.167Z" fill="#F2F2F2"/>
</svg>
