<svg width="21" height="22" viewBox="0 0 21 22" fill="none" xmlns="http://www.w3.org/2000/svg">
<path d="M4.52046 12.1441C4.52046 12.1441 4.45162 12.6053 4.38279 13.1373C4.34838 13.4039 4.31696 13.671 4.28854 13.9383C4.27159 14.0667 4.26312 14.1871 4.25465 14.2933C4.24512 14.3995 4.24512 14.4915 4.24512 14.5704C4.24512 14.7191 4.26312 14.8678 4.30548 15.0094C4.34043 15.1166 4.38279 15.2217 4.45162 15.3229C4.55435 15.4705 4.70049 15.6061 4.89747 15.7193C5.09444 15.8326 5.32636 15.9176 5.61759 15.9884C6.0126 16.0885 6.47538 16.1593 6.91381 16.1593C7.08537 16.1593 7.24846 16.1451 7.41155 16.1239C7.53121 16.1027 7.65088 16.0733 7.7536 16.0309C7.91669 15.9671 8.07131 15.8751 8.1825 15.7477C8.29338 15.6133 8.35909 15.4501 8.37101 15.2794C8.39748 14.8607 8.42396 14.3145 8.43984 13.8746C8.45784 13.4346 8.46632 13.0948 8.46632 13.0948L7.90822 13.0806V13.1373C7.89975 13.4063 7.86586 14.5279 7.81397 15.244C7.80838 15.3189 7.78483 15.3916 7.74513 15.4564C7.71424 15.4955 7.67664 15.5294 7.63394 15.5565C7.54325 15.6062 7.44499 15.642 7.34271 15.6627C7.20116 15.6869 7.05761 15.6987 6.91381 15.6981C6.54422 15.6981 6.12379 15.6344 5.7722 15.5494C5.59241 15.5111 5.41916 15.4488 5.25753 15.3643C5.07 15.275 4.92583 15.1199 4.8551 14.9315C4.81861 14.8119 4.80112 14.6878 4.80321 14.5633C4.80321 14.4996 4.80321 14.4136 4.81169 14.3145C4.8371 13.9605 4.907 13.4275 4.9663 12.9886C5.00019 12.7681 5.02666 12.5699 5.04361 12.4283C5.04993 12.371 5.05841 12.314 5.06902 12.2574C5.0775 12.2149 5.0775 12.1936 5.0775 12.1936L4.52046 12.1441ZM9.00217 4.0459C8.70565 4.0459 8.47267 4.50203 8.47267 5.05729C8.47267 5.61254 8.71412 6.06868 9.00217 6.06868C9.2987 6.06868 9.53168 5.61254 9.53168 5.05729C9.53168 4.50203 9.29022 4.0459 9.00217 4.0459ZM9.15043 5.30508C9.02547 5.30508 8.92381 5.10685 8.92381 4.86917C8.92381 4.63048 9.02547 4.43225 9.15043 4.43225C9.27434 4.43225 9.376 4.63048 9.376 4.86917C9.376 5.11696 9.27434 5.30508 9.15043 5.30508ZM12.0606 4.64565C12.0762 4.60994 12.0976 4.57683 12.1241 4.54755C12.1442 4.53238 12.1559 4.5253 12.176 4.5253C12.1887 4.5253 12.2078 4.53238 12.2268 4.54755C12.2533 4.57081 12.2914 4.63048 12.3232 4.71948C12.3497 4.81051 12.3688 4.92176 12.3688 5.05021H12.7087C12.7087 4.79534 12.6642 4.55463 12.5742 4.37561C12.5351 4.28826 12.4782 4.2092 12.4069 4.14299C12.3459 4.08346 12.2632 4.04868 12.176 4.0459C12.0891 4.04978 12.0068 4.08439 11.9452 4.14299C11.8389 4.25017 11.7637 4.38193 11.727 4.5253C11.6735 4.69792 11.6474 4.87726 11.6497 5.05729H11.9896C11.9833 4.88535 12.0214 4.73465 12.0606 4.64565Z" fill="#F2F2F2"/>
<path d="M18.6105 10.9777C18.4474 10.749 18.2691 10.5304 18.0768 10.3234C18.2029 10.1477 18.2948 9.95173 18.3479 9.74486C18.4097 9.49765 18.4416 9.24451 18.4432 8.99037C18.4432 8.57165 18.3553 8.18429 18.1891 7.83334C18.0164 7.4771 17.7758 7.1547 17.4795 6.88263L17.1925 6.60753C17.1608 6.3112 17.1046 5.93799 17.0019 5.43533C16.7456 4.16402 15.5744 2.21507 14.1479 1.27853C12.7616 0.374347 11.0005 0.016315 10.0612 0.000132801C9.28811 -0.00694692 7.51957 0.267139 5.97342 1.27954C4.54694 2.21507 3.28036 4.14885 3.12046 5.43635C3.03362 6.16657 3.00926 6.6308 3.01773 6.98074C2.99337 6.98883 2.85041 7.01917 2.68203 7.13244C2.58195 7.19805 2.49573 7.28109 2.42787 7.3772C2.33964 7.49513 2.27962 7.63013 2.25207 7.77265C2.20441 8.01539 2.17264 8.13776 2.16417 8.20755C2.1184 8.26143 2.07865 8.31974 2.04556 8.38151C1.99651 8.46368 1.95641 8.55044 1.9259 8.64043C1.86533 8.82535 1.8544 9.02185 1.89413 9.21186C1.9259 9.3484 1.98096 9.54562 2.07733 9.79037C2.12499 9.90466 2.18006 10.0179 2.24466 10.1474C2.00532 10.3911 1.7501 10.6804 1.51924 11C0.736632 12.0893 -0.107396 14.0685 0.0112126 15.2114C0.170064 16.6496 0.369157 16.6961 0.895483 16.3988C1.47794 16.064 2.13876 15.0587 2.13876 15.0587C2.13876 15.0587 2.84829 16.9014 4.00261 17.8835C5.34966 19.0254 6.59294 19.7182 8.09884 20.0145C9.07948 20.2046 9.73289 20.235 10.0591 20.2279C10.3937 20.235 11.0397 20.2046 12.0193 20.0155C13.5262 19.7182 14.7685 19.0244 16.1155 17.8835C17.2709 16.9014 17.9794 15.0587 17.9794 15.0587C17.9794 15.0587 18.6413 16.064 19.2237 16.3988C19.7416 16.6961 19.9481 16.6496 20.108 15.2114C20.2351 14.0544 19.391 12.0751 18.6095 10.9788L18.6105 10.9777ZM12.0691 3.06059C12.8252 3.06059 13.4394 3.93646 13.4394 5.01662C13.4394 6.09881 12.8252 6.97366 12.0691 6.97366C11.3119 6.97366 10.6976 6.09779 10.6976 5.01662C10.6976 3.93646 11.3119 3.06059 12.0691 3.06059ZM8.23545 3.06059C8.99264 3.06059 9.60581 3.93646 9.60581 5.01662C9.60581 6.09881 8.99264 6.97366 8.23545 6.97366C7.47827 6.97366 6.8651 6.09779 6.8651 5.01662C6.8651 3.93646 7.47932 3.06059 8.23545 3.06059ZM7.2241 7.66646C8.16344 7.27808 9.88539 7.19414 10.3312 7.17088H10.4265C10.8734 7.18605 12.5869 7.27808 13.5347 7.66646C14.6255 8.11551 15.2482 8.35926 15.2482 8.61008C15.2482 8.86091 15.0406 9.10566 14.4666 9.35649C13.8937 9.60731 13.6385 9.55371 13.6385 9.55371C13.6385 9.55371 13.9488 9.21186 14.0526 8.86091C14.0526 8.86091 12.499 10.0867 10.6267 10.1939H10.1078C8.23545 10.0867 6.68295 8.8599 6.68295 8.8599C6.78673 9.21085 7.09702 9.5527 7.09702 9.5527C7.09702 9.5527 6.83439 9.6063 6.26888 9.35548C5.6949 9.10364 5.48733 8.8599 5.48733 8.60907C5.48733 8.35825 6.14074 8.10641 7.2241 7.66545V7.66646ZM2.53059 8.5494C2.54453 8.52785 2.56048 8.50754 2.57824 8.48872C2.58566 8.48063 2.58566 8.48063 2.58566 8.47355L2.64178 8.41994L2.65767 8.34409L2.76145 7.84851C2.77734 7.75748 2.81652 7.6968 2.84935 7.6432C2.871 7.61627 2.89472 7.59092 2.9203 7.56734C2.95207 7.65837 2.99973 7.76557 3.06433 7.88694C3.19988 8.16002 3.40639 8.50389 3.71773 8.85383C4.17946 9.38683 4.87205 9.95725 5.88446 10.3911C6.89687 10.826 8.23545 11.1224 9.9807 11.1224H10.2274C11.8371 11.0991 13.0974 10.8402 14.0928 10.468C14.7427 10.2254 15.3499 9.88906 15.8931 9.47078C16.4531 9.03852 16.912 8.49898 17.2402 7.88694C17.3037 7.75748 17.3599 7.64421 17.399 7.54408C17.5261 7.70388 17.631 7.87177 17.7178 8.03966C17.8533 8.32892 17.9338 8.64043 17.9338 8.99037C17.9338 9.19669 17.9095 9.40908 17.8533 9.63766C17.8164 9.76902 17.7601 9.89468 17.686 10.0109C17.5272 10.2617 17.2645 10.5509 16.9299 10.8554C16.3381 11.3645 15.6787 11.7971 14.9686 12.1419C14.1955 12.5231 13.3356 12.8276 12.4672 12.9641C11.9063 13.0538 11.3384 13.0971 10.7697 13.0936C9.66194 13.0936 8.53833 12.9419 7.51004 12.7052C6.57366 12.4959 5.66313 12.1925 4.79368 11.8C3.87659 11.3732 3.3026 10.8099 2.94466 10.3001C2.78865 10.0779 2.65766 9.84062 2.55389 9.59214C2.48633 9.43432 2.43318 9.27122 2.39504 9.10465C2.38627 9.06195 2.38096 9.01867 2.37915 8.97519C2.37915 8.90743 2.39504 8.83866 2.41092 8.77797C2.44093 8.69742 2.48112 8.62066 2.53059 8.5494ZM15.2958 17.5629C13.8132 19.435 10.9539 19.7697 10.0686 19.8233C9.18432 19.7627 6.32289 19.4279 4.84134 17.5629C3.08021 15.3318 3.3905 12.957 3.59807 12.2632C3.64572 12.1044 3.70926 11.9446 3.7728 11.7848C4.01214 11.9446 4.27477 12.0963 4.57023 12.2339C5.35072 12.599 6.32289 12.9338 7.39143 13.1775C8.45891 13.4213 9.61428 13.5811 10.7697 13.5811C11.3669 13.5811 11.9653 13.5355 12.5467 13.4445C13.9657 13.2159 15.3276 12.5919 16.3803 11.8839C16.3877 11.8839 16.3877 11.8759 16.3951 11.8759C16.4512 12.0053 16.4989 12.1348 16.5307 12.2561C16.7456 12.9641 17.057 15.3399 15.2958 17.5629Z" fill="#F2F2F2"/>
<path d="M3.96197 17.7835C3.76271 17.6008 3.5786 17.4037 3.41129 17.1938C3.16666 17.3395 2.8532 17.5276 2.64987 17.6975C2.34487 17.9625 2.20932 18.364 2.4889 18.4237C2.4889 18.4237 1.2022 19.7132 3.42929 20.6437C5.68921 21.5924 8.16093 21.3112 9.37138 20.4819C9.43068 20.4394 9.48152 20.405 9.53235 20.3706C9.12256 20.3267 8.71563 20.2612 8.31343 20.1744C6.71433 19.8326 5.39269 19.0558 3.96197 17.7835ZM11.8113 20.1724C11.3284 20.2745 10.9302 20.3342 10.5914 20.3686C10.6422 20.403 10.693 20.4374 10.7523 20.4798C11.9638 21.3163 14.4451 21.5893 16.6976 20.6417C18.9162 19.7112 17.638 18.4227 17.638 18.4227C17.9176 18.3721 17.7735 17.9615 17.4685 17.6975C17.2338 17.5043 16.9782 17.3355 16.7061 17.1938C16.5366 17.4073 16.3502 17.6035 16.1554 17.7825C14.7331 19.0629 13.4125 19.8396 11.8113 20.1724Z" fill="#F2F2F2"/>
</svg>
