<svg width="25" height="21" viewBox="0 0 25 21" fill="none" xmlns="http://www.w3.org/2000/svg">
<path d="M22.5106 1.2606L22.4301 1.06584C22.4277 1.06025 22.4232 1.05564 22.4174 1.05315L22.2174 0.966579C20.5715 0.25381 18.2498 0.0779411 16.1957 0H13.8821C13.856 0 13.848 0.033655 13.8716 0.0444076L18.6238 2.21661C18.6507 2.22882 18.6358 2.26685 18.607 2.25968C16.4698 1.72752 14.3106 1.45816 12.1786 1.45816C10.0534 1.45816 7.9013 1.72588 5.7706 2.25464C5.74161 2.26181 5.72689 2.22336 5.7541 2.21139L10.6731 0.0446506C10.697 0.034141 10.6892 0.000121486 10.6629 0.000121486H8.16153C6.10747 0.0780626 3.78568 0.253931 2.13979 0.9667L1.93985 1.05327C1.93405 1.05576 1.92946 1.06031 1.92717 1.06596L1.84663 1.26073C0.162199 5.33007 -0.316445 12.2384 0.193994 16.5662L0.220756 16.7932L0.410123 16.9332C3.04152 18.8786 6.56006 19.8789 8.77353 20.1443L9.05975 20.1786C9.15278 20.1898 9.24166 20.1385 9.27454 20.0548L10.7152 16.3851C10.7601 16.2707 10.6836 16.1458 10.5571 16.1269L10.115 16.0607C8.57352 15.8298 6.38948 15.2176 4.54378 13.6218C4.50441 13.5877 4.54238 13.5265 4.59221 13.5441C4.7422 13.5972 4.90761 13.6588 5.07793 13.7222C5.49528 13.8777 5.9269 14.0384 6.20853 14.1022C8.18784 14.5509 10.195 14.7785 12.1785 14.7785V14.7448H12.1826L12.1829 14.7785C14.1623 14.7785 16.1694 14.551 18.1485 14.1022C18.4303 14.0384 18.8619 13.8777 19.2793 13.7222C19.4495 13.6588 19.6148 13.5972 19.7648 13.5441C19.8146 13.5265 19.8526 13.5878 19.8132 13.6218C17.9737 15.2106 15.7869 15.8211 14.2419 16.0519L13.8 16.1178C13.6735 16.1367 13.5969 16.2615 13.6417 16.3759L15.0826 20.0546C15.1154 20.1384 15.2044 20.1897 15.2974 20.1785L15.5839 20.1442C17.7972 19.8788 21.3155 18.8786 23.947 16.9331L24.1364 16.7931L24.1631 16.5662C24.6736 12.2384 24.195 5.33 22.5106 1.2606ZM7.4765 11.2515C5.68713 11.4036 4.19429 9.98047 4.35365 8.27445C4.47586 6.96671 5.58034 5.91356 6.95204 5.79692C8.74142 5.64481 10.2343 7.06798 10.0749 8.77399C9.95262 10.0817 8.84814 11.1349 7.4765 11.2515ZM17.4053 11.2515C15.6159 11.4036 14.1231 9.98047 14.2825 8.27445C14.4047 6.96671 15.5092 5.91356 16.8809 5.79692C18.6702 5.64481 20.1631 7.06798 20.0037 8.77399C19.8814 10.0817 18.777 11.1349 17.4053 11.2515Z" fill="#F2F2F2"/>
</svg>
